<svg width="561" height="321" viewBox="0 0 561 321" fill="none" xmlns="http://www.w3.org/2000/svg">
<path d="M6.45413 69.8031V1.1631H17.7821L48.5021 1.0671C60.9181 1.0671 70.5501 3.9791 77.3981 9.8031C84.2461 15.6271 87.6701 24.1711 87.6701 35.4351C87.6701 46.6991 84.2461 55.2431 77.3981 61.0671C70.5501 66.8911 60.9181 69.8031 48.5021 69.8031H6.45413ZM47.4461 13.5471H21.8141V57.3231H47.4461C55.5101 57.3231 61.6221 55.5631 65.7821 52.0431C69.9421 48.5231 72.0221 42.9871 72.0221 35.4351C72.0221 27.8191 69.9421 22.2831 65.7821 18.8271C61.6221 15.3071 55.5101 13.5471 47.4461 13.5471ZM97.2979 69.8031V1.1631H172.562V13.6431H112.658V28.8111H166.994V41.2911H112.658V57.3231H172.562V69.8031H97.2979ZM180.871 70.2831V57.8031L236.071 57.8991C238.887 57.8991 241.031 57.2591 242.503 55.9791C244.039 54.6351 244.807 52.4911 244.807 49.5471C244.807 46.6031 244.039 44.4911 242.503 43.2111C241.031 41.8671 238.887 41.1951 236.071 41.1951H201.703C194.599 41.1951 189.063 39.4991 185.095 36.1071C181.191 32.6511 179.239 27.5951 179.239 20.9391C179.239 14.2831 181.191 9.2591 185.095 5.8671C189.063 2.4111 194.599 0.683098 201.703 0.683098H255.655V13.1631L203.335 13.0671C200.583 13.0671 198.439 13.7071 196.903 14.9871C195.367 16.2031 194.599 18.1871 194.599 20.9391C194.599 23.6911 195.367 25.7071 196.903 26.9871C198.439 28.2031 200.583 28.8111 203.335 28.8111H237.703C244.807 28.8111 250.311 30.5711 254.215 34.0911C258.183 37.5471 260.167 42.6991 260.167 49.5471C260.167 56.3311 258.183 61.4831 254.215 65.0031C250.311 68.5231 244.807 70.2831 237.703 70.2831H180.871ZM269.798 69.8031V1.1631H285.158V69.8031H269.798ZM331.987 70.2831C320.275 70.2831 311.123 67.3711 304.531 61.5471C298.003 55.6591 294.739 46.9551 294.739 35.4351C294.739 23.9791 298.067 15.3391 304.723 9.5151C311.443 3.6271 321.171 0.683098 333.907 0.683098H370.387V13.1631H334.963C326.579 13.1631 320.371 14.9231 316.339 18.4431C312.371 21.9631 310.387 27.6271 310.387 35.4351C310.387 42.8591 312.147 48.3631 315.667 51.9471C319.187 55.4671 324.339 57.3871 331.123 57.7071V31.0191H374.131V70.2831H331.987ZM345.523 57.8031H358.771V43.4991H345.523V57.8031ZM387.548 69.8031V1.1631H403.1L451.676 50.5071V1.1631H467.036V69.8031H451.484L402.908 20.3631V69.8031H387.548ZM0.694131 194.803L31.6061 126.163H55.3181L86.2301 194.803H69.5261L62.9981 180.307H23.9261L17.3981 194.803H0.694131ZM29.4941 167.827H57.4301L44.0861 138.163H42.8381L29.4941 167.827ZM93.9229 194.803V126.163H109.283V182.323H159.491V194.803H93.9229ZM169.11 194.803V126.163H244.374V138.643H184.47V153.811H238.806V166.291H184.47V182.323H244.374V194.803H169.11ZM214.23 122.803L238.422 108.403H219.51L198.87 122.803H214.23ZM254.892 194.803V126.163H267.756L299.532 148.435H300.012L331.788 126.163H344.652V194.803H329.292V145.363L307.5 159.955V194.803H292.14V159.955L270.252 145.363V194.803H254.892ZM391.673 194.803V126.163H403.001L433.721 126.067C446.137 126.067 455.769 128.979 462.617 134.803C469.465 140.627 472.889 149.171 472.889 160.435C472.889 171.699 469.465 180.243 462.617 186.067C455.769 191.891 446.137 194.803 433.721 194.803H391.673ZM432.665 138.547H407.033V182.323H432.665C440.729 182.323 446.841 180.563 451.001 177.043C455.161 173.523 457.241 167.987 457.241 160.435C457.241 152.819 455.161 147.283 451.001 143.827C446.841 140.307 440.729 138.547 432.665 138.547ZM474.882 194.803L505.794 126.163H529.506L560.418 194.803H543.714L537.186 180.307H498.114L491.586 194.803H474.882ZM503.682 167.827H531.618L518.274 138.163H517.026L503.682 167.827ZM41.7821 320.283C29.1101 320.283 19.4141 317.371 12.6941 311.547C5.97413 305.659 2.61413 296.955 2.61413 285.435C2.61413 273.979 5.97413 265.307 12.6941 259.419C19.4141 253.531 29.1101 250.619 41.7821 250.683L76.3421 250.875V263.163H42.8381C34.5181 263.163 28.3421 264.923 24.3101 268.443C20.2781 271.963 18.2621 277.627 18.2621 285.435C18.2621 293.243 20.2781 298.939 24.3101 302.523C28.3421 306.043 34.5181 307.803 42.8381 307.803H77.3021V320.283H41.7821ZM119.673 320.283C107.449 320.283 97.9766 317.371 91.2566 311.547C84.5366 305.659 81.1766 296.955 81.1766 285.435C81.1766 273.979 84.5366 265.339 91.2566 259.515C97.9766 253.627 107.673 250.683 120.345 250.683H137.625C150.297 250.683 159.993 253.627 166.713 259.515C173.433 265.339 176.793 273.979 176.793 285.435C176.793 296.955 173.433 305.659 166.713 311.547C159.993 317.371 150.457 320.283 138.105 320.283H119.673ZM121.401 263.163C114.297 263.163 108.761 264.443 104.793 267.003C100.825 269.563 98.3286 273.627 97.3046 279.195H160.665C159.641 273.627 157.145 269.563 153.177 267.003C149.209 264.443 143.673 263.163 136.569 263.163H121.401ZM121.689 307.803H136.569C143.737 307.803 149.273 306.523 153.177 303.963C157.145 301.403 159.641 297.307 160.665 291.675H97.3046C98.3286 297.307 100.825 301.403 104.793 303.963C108.761 306.523 114.393 307.803 121.689 307.803ZM186.36 319.803V251.163H201.912L250.488 300.507V251.163H265.848V319.803H250.296L201.72 270.363V319.803H186.36ZM276.867 285.915V251.163H361.347V285.915H345.795V263.643H324.867V319.803H309.507V263.643H292.419V285.915H276.867ZM357.038 319.803L387.95 251.163H411.662L442.574 319.803H425.87L419.342 305.307H380.27L373.742 319.803H357.038ZM385.838 292.827H413.774L400.43 263.163H399.182L385.838 292.827Z" fill="#F5F5F5"/>
</svg>
