<svg width="109" height="810" viewBox="0 0 109 810" fill="none" xmlns="http://www.w3.org/2000/svg">
<g clip-path="url(#clip0_1159_69)">
<path d="M448.608 765.505C249.599 789.641 68.0573 647.371 43.9321 448.448C19.8069 249.525 162.067 67.8969 361.076 43.7612C560.085 19.6255 741.627 161.896 765.763 360.905C789.899 559.915 647.628 741.456 448.619 765.592L448.608 765.505ZM366.415 87.7837C191.719 109.058 66.8529 268.392 88.0411 443.099C109.229 617.805 268.563 742.671 443.269 721.483C617.976 700.295 742.842 540.961 721.654 366.255C700.466 191.548 541.045 66.6925 366.425 87.8702L366.415 87.7837Z" fill="#E94E1B"/>
</g>
<defs>
<clipPath id="clip0_1159_69">
<rect width="727.033" height="727.033" fill="white" transform="translate(0.160645 87.5327) rotate(-6.91501)"/>
</clipPath>
</defs>
</svg>
