<svg width="44" height="38" viewBox="0 0 44 38" fill="none" xmlns="http://www.w3.org/2000/svg">
<g opacity="0.4">
<path d="M16.7853 5.4541H11.4053V10.8393H16.7853V5.4541Z" fill="black"/>
<path d="M11.4148 0.0693359H6.03479V5.45451H11.4148V0.0693359Z" fill="black"/>
<path d="M6.0348 10.8301H0.654785V16.2152H6.0348V10.8301Z" fill="black"/>
<path d="M32.9158 5.4541H27.5358V10.8393H32.9158V5.4541Z" fill="black"/>
<path d="M22.1653 10.8301H16.7853V16.2152H22.1653V10.8301Z" fill="black"/>
<path d="M22.1653 16.2153H16.7853V21.6005H22.1653V16.2153Z" fill="black"/>
<path d="M38.2864 0.0693359H32.9064V5.45451H38.2864V0.0693359Z" fill="black"/>
<path d="M11.4148 10.8301H6.03479V16.2152H11.4148V10.8301Z" fill="black"/>
<path d="M16.7853 10.8301H11.4053V16.2152H16.7853V10.8301Z" fill="black"/>
<path d="M11.4148 16.2153H6.03479V21.6005H11.4148V16.2153Z" fill="black"/>
<path d="M6.0348 16.2153H0.654785V21.6005H6.0348V16.2153Z" fill="black"/>
<path d="M6.0348 21.5908H0.654785V26.976H6.0348V21.5908Z" fill="black"/>
<path d="M22.1653 21.5908H16.7853V26.976H22.1653V21.5908Z" fill="black"/>
<path d="M22.1653 26.9761H16.7853V32.3612H22.1653V26.9761Z" fill="black"/>
<path d="M11.4148 21.5908H6.03479V26.976H11.4148V21.5908Z" fill="black"/>
<path d="M16.7853 21.5908H11.4053V26.976H16.7853V21.5908Z" fill="black"/>
<path d="M11.4148 26.9761H6.03479V32.3612H11.4148V26.9761Z" fill="black"/>
<path d="M16.7853 32.3516H11.4053V37.7367H16.7853V32.3516Z" fill="black"/>
<path d="M32.9158 32.3516H27.5358V37.7367H32.9158V32.3516Z" fill="black"/>
<path d="M16.7853 26.9761H11.4053V32.3612H16.7853V26.9761Z" fill="black"/>
<path d="M27.5358 10.8301H22.1558V16.2152H27.5358V10.8301Z" fill="black"/>
<path d="M43.6663 10.8301H38.2863V16.2152H43.6663V10.8301Z" fill="black"/>
<path d="M43.6663 16.2153H38.2863V21.6005H43.6663V16.2153Z" fill="black"/>
<path d="M32.9158 10.8301H27.5358V16.2152H32.9158V10.8301Z" fill="black"/>
<path d="M38.2864 10.8301H32.9064V16.2152H38.2864V10.8301Z" fill="black"/>
<path d="M27.5358 16.2153H22.1558V21.6005H27.5358V16.2153Z" fill="black"/>
<path d="M38.2864 16.2153H32.9064V21.6005H38.2864V16.2153Z" fill="black"/>
<path d="M27.5358 21.5908H22.1558V26.976H27.5358V21.5908Z" fill="black"/>
<path d="M43.6663 21.5908H38.2863V26.976H43.6663V21.5908Z" fill="black"/>
<path d="M32.9158 21.5908H27.5358V26.976H32.9158V21.5908Z" fill="black"/>
<path d="M38.2864 21.5908H32.9064V26.976H38.2864V21.5908Z" fill="black"/>
<path d="M32.9158 26.9761H27.5358V32.3612H32.9158V26.9761Z" fill="black"/>
<path d="M27.5358 26.9761H22.1558V32.3612H27.5358V26.9761Z" fill="black"/>
<path d="M38.2864 26.9761H32.9064V32.3612H38.2864V26.9761Z" fill="black"/>
</g>
</svg>
