<svg width="67" height="39" viewBox="0 0 67 39" fill="none" xmlns="http://www.w3.org/2000/svg">
<g opacity="0.4">
<path d="M22.4888 18.1224V14.9546L39.6747 14.9546L41.0336 18.1224L22.4888 18.1224Z" fill="black"/>
<path d="M6.62189 17.6007C6.62189 18.0418 6.2622 18.4027 5.82256 18.4027C5.38292 18.4027 5.02319 18.0418 5.02319 17.6007L5.02319 15.3952C5.02319 14.9542 5.38292 14.5933 5.82256 14.5933C6.2622 14.5933 6.62189 14.9542 6.62189 15.3952V17.6007Z" fill="black"/>
<path d="M2.14558 19.3254C2.14558 19.8867 1.70594 20.3278 1.1464 20.3278C0.586856 20.3278 0.147217 19.8867 0.147217 19.3254L0.147217 13.6714C0.147217 13.11 0.586856 12.6689 1.1464 12.6689C1.70594 12.6689 2.14558 13.11 2.14558 13.6714L2.14558 19.3254Z" fill="black"/>
<path d="M6.18221 16.478C6.18221 17.9216 5.02318 19.0844 3.58436 19.0844H1.86577C0.426948 19.0844 1.62594 17.9216 1.62594 16.478C1.62594 15.0344 0.426948 13.8716 1.86577 13.8716H3.58436C5.02318 13.8716 6.18221 15.0344 6.18221 16.478Z" fill="black"/>
<path d="M2.02563 13.3506L3.02482 13.9922H2.02563V13.3506Z" fill="black"/>
<path d="M2.02551 19.646L3.02469 19.0044H2.02551V19.646Z" fill="black"/>
<path d="M31.9613 11.7864C31.9613 12.027 31.8014 12.2275 31.6415 12.2275H29.2835C29.2835 12.2275 28.9637 12.027 28.9637 11.7864V11.7062C28.9637 11.4656 29.1236 11.2651 29.2835 11.2651H31.6415C31.6415 11.2651 31.9613 11.4656 31.9613 11.7062V11.7864Z" fill="black"/>
<path d="M30.9621 12.0674H29.9629V15.0347H30.9621V12.0674Z" fill="black"/>
<path d="M32.0411 14.7939H28.8837V16.3979H32.0411V14.7939Z" fill="black"/>
<path d="M32.3208 15.1147C32.3208 15.3553 32.1209 15.5157 31.9211 15.5157H29.0435C28.8037 15.5157 28.6438 15.3152 28.6438 15.1147C28.6438 14.8741 28.8436 14.4731 29.0435 14.4731H31.9211C32.1609 14.4731 32.3208 14.8741 32.3208 15.1147Z" fill="black"/>
<path d="M31.8812 11.506C31.8812 11.2654 31.7613 11.105 31.5615 11.105H29.3233C29.3233 11.105 29.0035 11.3055 29.0035 11.506C29.0035 11.7466 29.1234 11.907 29.3233 11.907H31.5615C31.5615 11.907 31.8812 11.7065 31.8812 11.506Z" fill="black"/>
<path d="M25.926 11.7864C25.926 12.027 25.7661 12.2275 25.6063 12.2275H23.2482C23.2482 12.2275 22.9285 12.027 22.9285 11.7864V11.7062C22.9285 11.4656 23.0883 11.2651 23.2482 11.2651H25.6063C25.6063 11.2651 25.926 11.4656 25.926 11.7062V11.7864Z" fill="black"/>
<path d="M24.9267 12.0674H23.9275V15.0347H24.9267V12.0674Z" fill="black"/>
<path d="M26.0057 14.7939H22.8483V16.3979H26.0057V14.7939Z" fill="black"/>
<path d="M26.2457 15.1147C26.2457 15.3553 26.0459 15.5157 25.846 15.5157H22.9684C22.7286 15.5157 22.5687 15.3152 22.5687 15.1147C22.5687 14.8741 22.7686 14.4731 22.9684 14.4731H25.846C26.0858 14.4731 26.2457 14.8741 26.2457 15.1147Z" fill="black"/>
<path d="M25.846 11.506C25.846 11.2654 25.7261 11.105 25.5263 11.105H23.2881C23.2881 11.105 22.9684 11.3055 22.9684 11.506C22.9684 11.7466 23.0883 11.907 23.2881 11.907H25.5263C25.5263 11.907 25.846 11.7065 25.846 11.506Z" fill="black"/>
<path d="M37.996 11.7864C37.996 12.027 37.8361 12.2275 37.6762 12.2275H35.3182C35.3182 12.2275 34.9984 12.027 34.9984 11.7864V11.7062C34.9984 11.4656 35.1583 11.2651 35.3182 11.2651H37.6762C37.6762 11.2651 37.996 11.4656 37.996 11.7062V11.7864Z" fill="black"/>
<path d="M37.0368 12.0674H36.0376V15.0347H37.0368V12.0674Z" fill="black"/>
<path d="M38.1159 14.7939H34.9585V16.3979H38.1159V14.7939Z" fill="black"/>
<path d="M38.3558 15.1147C38.3558 15.3553 38.156 15.5157 37.9561 15.5157H35.0785C34.8387 15.5157 34.6788 15.3152 34.6788 15.1147C34.6788 14.8741 34.8787 14.4731 35.0785 14.4731H37.9561C38.1959 14.4731 38.3558 14.8741 38.3558 15.1147Z" fill="black"/>
<path d="M37.9561 11.506C37.9561 11.2654 37.8362 11.105 37.6364 11.105H35.3982C35.3982 11.105 35.0785 11.3055 35.0785 11.506C35.0785 11.7466 35.1984 11.907 35.3982 11.907H37.6364C37.6364 11.907 37.9561 11.7065 37.9561 11.506Z" fill="black"/>
<path d="M26.086 19.606C24.6471 19.6862 23.5281 19.7664 22.8087 19.8465C22.7687 22.6936 22.8087 24.5782 22.8087 27.4252C22.8087 28.6683 23.0884 29.7109 24.4074 29.751C25.8861 29.7911 26.1659 28.6683 26.1259 27.3851C26.1259 24.498 26.1259 22.5332 26.1259 19.6461L26.086 19.606Z" fill="black"/>
<path d="M38.156 19.7665C37.0769 19.6462 35.9578 19.566 34.8787 19.5259C34.8787 22.4932 34.8787 24.5382 34.8787 27.5456C34.8787 28.7486 35.3183 29.6308 36.5573 29.5907C37.7563 29.5907 38.2359 28.7486 38.2359 27.5055C38.196 24.6184 38.2359 22.6536 38.2359 19.7665H38.156Z" fill="black"/>
<path d="M32.201 17.8418C32.201 17.521 32.201 17.2002 32.201 16.9195C32.201 15.7967 31.7613 14.9146 30.4424 14.9146C29.1235 14.9146 28.7638 15.7967 28.7638 16.9596C28.7638 17.2403 28.7638 17.5611 28.7638 17.8418C29.8429 17.8418 31.002 17.8418 32.201 17.8418Z" fill="black"/>
<path d="M28.7638 19.486C28.7638 20.5686 28.7638 21.6513 28.7638 22.6939C28.7638 24.6186 28.7638 25.581 28.7638 27.5057C28.7638 28.7087 29.2434 29.5508 30.4424 29.5909C31.6814 29.631 32.241 28.7889 32.241 27.5859C32.241 24.3379 32.241 22.2127 32.241 19.4058C31.0419 19.4058 29.8829 19.4058 28.8038 19.4058L28.7638 19.486Z" fill="black"/>
<path d="M14.0558 16.2779C14.6153 15.8368 15.2548 15.3957 16.0542 14.9546C13.0966 14.9546 10.0991 14.9546 7.14148 14.9546L7.14148 18.2427C8.74017 18.2427 10.3389 18.2427 11.9775 18.2427C12.4571 17.6813 13.1365 16.9595 14.0558 16.2378V16.2779Z" fill="black"/>
<path d="M45.9896 17.4809C44.2311 16.1176 42.2327 15.2755 39.9945 14.9146C39.0353 14.9146 38.0362 14.9146 37.0769 14.9146C35.5582 14.8745 34.8388 15.4359 34.8787 16.9997C34.8787 17.3205 34.8787 17.6413 34.8787 17.922C36.3175 18.0022 37.7564 18.0824 39.1552 18.2829C39.2751 18.2829 39.3551 18.2829 39.475 18.2829C39.6748 18.2829 39.8347 18.323 40.0345 18.3631C40.0745 18.3631 40.1144 18.3631 40.1544 18.3631C44.5908 19.2453 47.3885 22.8141 47.1487 27.5457C46.9488 31.8764 43.112 35.365 38.5158 35.365C33.2001 35.365 27.8845 35.365 22.5688 35.365C17.9326 35.365 14.1757 31.9566 13.816 27.5858C13.4563 22.8943 16.6537 19.0448 21.3298 18.2829C21.5297 18.2829 21.7295 18.2428 21.8494 18.2428C22.2491 18.2027 23.8478 18.0423 26.046 17.922C26.046 17.7616 26.046 17.6012 26.046 17.4408C26.046 15.1953 25.7263 14.9146 23.4082 14.9146C22.5688 14.9146 21.7295 14.9146 20.8902 14.9146C17.1732 15.5562 14.7752 17.521 13.5362 18.8844C13.3764 19.125 13.2165 19.2453 13.0566 19.4458C10.219 23.3754 9.65941 27.5858 11.7377 31.9165C13.776 36.167 17.2932 38.5729 22.0892 38.6531C27.8845 38.7333 33.6797 38.8135 39.435 38.613C44.351 38.4526 47.8281 35.766 49.6266 31.1947C51.3852 26.7838 50.5858 22.6938 47.7082 19.0849C47.2686 18.6037 46.709 18.0423 45.9896 17.4408V17.4809Z" fill="black"/>
<path d="M66.8525 30.0716C66.8525 21.0092 66.8525 11.987 66.8525 2.92465C66.8525 1.92218 66.8925 0.959809 65.7334 0.558821C64.5744 0.197931 63.8949 0.799414 63.2155 1.72169C60.7775 5.21029 57.9798 8.3781 54.6625 11.1048C51.8648 13.4306 48.7873 14.9543 45.1104 14.9543C45.8697 15.3553 46.5092 15.7964 47.0288 16.2375C48.2677 17.1998 49.1071 18.2023 49.5467 18.8038C50.5059 19.0845 51.5451 19.6459 52.9439 20.6082C57.0605 23.4553 60.3778 27.1444 63.2954 31.1943C63.9349 32.0765 64.5744 32.8785 65.7734 32.4775C66.8925 32.0765 66.8525 31.074 66.8525 30.0716Z" fill="black"/>
</g>
</svg>
