<svg width="108" height="21" viewBox="0 0 108 21" fill="none" xmlns="http://www.w3.org/2000/svg">
<g clip-path="url(#clip0_604_17)">
<path d="M20.0365 4.09528V5.19733L23.7283 9.56692V18.7855H21.1027V14.4875H16.3281V18.7855H13.7218V9.56692L17.4302 5.21386V4.09253H20.0365V4.09528ZM21.1578 11.8812V10.7792L18.7333 7.89733L16.2923 10.7985V11.8812H21.1578Z" fill="#DBDBDB"/>
<path d="M4.40954 10.7791L3.3075 9.51175V18.7854H0.701172V4.09521H3.32679V5.23307L5.73199 8.0791L8.0821 5.25236V4.09521H10.6884V18.7854H8.09863V9.53104L7.01587 10.8177V12.7462H4.40954V10.7819V10.7791Z" fill="#DBDBDB"/>
<path d="M36.3247 4.59119V7.12588H31.495C30.2276 7.12588 29.2 8.22792 29.2 9.55038V13.8291C29.2 15.1708 30.2276 16.2728 31.495 16.2728C32.7623 16.2728 33.79 15.1708 33.79 13.8291V12.9667H30.944V10.432H36.3247V13.8291C36.3247 16.5649 34.1564 18.7882 31.495 18.7882C28.8336 18.7882 26.6653 16.5676 26.6653 13.8291V9.55038C26.6653 6.81456 28.8336 4.59119 31.495 4.59119H36.3247Z" fill="#DBDBDB"/>
<path d="M82.0842 6.42601V4.22192H84.5996V7.65478L77.4749 16.9092V18.9287H74.9595V15.752L82.0842 6.42325V6.42601Z" fill="#DBDBDB"/>
<path d="M95.0111 16.1406V18.7855H92.4764V17.7936L85.3517 13.5894V9.78731L92.4764 5.58302V4.59119H95.0111V7.23609L87.8864 11.4404V11.9363L95.0111 16.1406Z" fill="#DBDBDB"/>
<path d="M104.009 4.09528V5.19733L107.701 9.56692V18.7855H105.076V14.4875H100.301V18.7855H97.6946V9.56692L101.403 5.21386V4.09253H104.009V4.09528ZM105.131 11.8812V10.7792L102.706 7.89733L100.265 10.7985V11.8812H105.131Z" fill="#DBDBDB"/>
<path d="M68.9534 10.5422L67.8238 9.24456V6.75119H63.7407V4.09802H67.8431V4.86394L70.3061 7.77884L72.7141 4.88323V4.10078H76.7972V6.75394H72.7334V9.2666L71.6231 10.5835V18.6753H68.9506V10.545L68.9534 10.5422Z" fill="#DBDBDB"/>
<path d="M84.7704 1.95038C84.7704 1.19338 84.1568 0.579712 83.3998 0.579712C82.6428 0.579712 82.0291 1.19338 82.0291 1.95038C82.0291 2.70737 82.6428 3.32104 83.3998 3.32104C84.1568 3.32104 84.7704 2.70737 84.7704 1.95038Z" fill="#DBDBDB"/>
<path d="M46.5158 5.23027V10.9085L41.7164 5.26333V6.77037L39.0991 4.15027V18.7854H41.7054V9.47589L46.5158 15.1321V18.7854H49.1056V5.23027H46.5158Z" fill="#DBDBDB"/>
<path d="M59.8973 6.15883C57.9633 5.29372 55.7482 5.71525 54.1585 7.05699C54.1585 7.00189 54.1585 6.94679 54.1585 6.88893C54.1612 6.80352 54.1722 6.72087 54.175 6.63546C54.175 6.62444 54.175 6.61617 54.175 6.60515C54.1777 6.58862 54.1805 6.57209 54.186 6.55005C54.2191 6.36821 54.2604 6.18638 54.31 6.0073C54.3375 5.91087 54.3678 5.81444 54.4009 5.71801C54.423 5.6574 54.4395 5.60505 54.4477 5.57474C54.5111 5.42046 54.602 5.26893 54.6819 5.12842C54.6929 5.10913 54.8445 4.86393 54.9382 4.72066C54.974 4.67658 55.0125 4.62974 55.0511 4.58566C55.1172 4.51127 55.1861 4.43689 55.2577 4.36525C55.3294 4.29362 55.401 4.22474 55.4782 4.15862C55.4974 4.14209 55.5277 4.11178 55.5581 4.08148C55.6903 3.96576 55.8776 3.86933 56.0264 3.78944C56.1008 3.74811 56.178 3.70954 56.2551 3.67097C56.2799 3.65995 56.2964 3.65168 56.313 3.64342C56.324 3.64066 56.3377 3.63791 56.3543 3.6324C56.5526 3.57178 56.7455 3.50566 56.9466 3.46158C57.0183 3.44505 57.0899 3.43403 57.1615 3.42025C57.2056 3.41474 57.2497 3.41199 57.2938 3.40923C57.5004 3.39546 57.707 3.3927 57.9109 3.40648C57.9715 3.40923 58.0321 3.41474 58.09 3.42025C58.1451 3.42852 58.2002 3.43954 58.2553 3.45056C58.4564 3.49189 58.6548 3.54699 58.8476 3.61586C58.8559 3.61862 58.8807 3.62689 58.911 3.63791C58.9248 3.64342 58.9468 3.65444 58.9909 3.67648C59.0378 3.69852 59.0818 3.72331 59.1259 3.74811C59.3215 3.8528 59.5061 3.97678 59.6852 4.10903C59.7045 4.1228 59.7238 4.13382 59.7431 4.14484L61.3052 1.9325C61.2363 1.86086 61.1592 1.79199 61.0765 1.73137C59.5089 0.554943 57.2332 0.33178 55.4258 1.05086C53.5 1.81678 52.0673 3.50015 51.5879 5.5224C51.227 7.05423 51.4171 8.6825 52.1114 10.0821C51.7753 11.0023 51.5962 11.9831 51.5687 12.9446C51.5163 14.9504 52.1913 17.0525 53.6295 18.4852C55.0759 19.9288 57.145 20.5763 59.1507 20.2457C59.6411 20.1658 60.0957 19.9812 60.5448 19.7718C60.6578 19.7195 60.7597 19.6423 60.8451 19.5541L59.283 17.3446C59.2389 17.3611 59.1948 17.3749 59.1535 17.3941C59.1452 17.3969 59.1397 17.3997 59.1342 17.4052C59.1287 17.4052 59.1259 17.4052 59.1232 17.4079C59.046 17.4327 58.9689 17.4603 58.8917 17.4823C58.7485 17.5236 58.6024 17.5512 58.4564 17.5815C58.4537 17.5815 58.4509 17.5815 58.4482 17.5815C58.3517 17.5842 58.2553 17.5953 58.1561 17.5953C57.9853 17.5953 57.8172 17.5842 57.6464 17.5732C57.55 17.5512 57.4536 17.5374 57.3599 17.5126C57.2001 17.474 57.0431 17.4272 56.886 17.3749C56.8585 17.3638 56.751 17.317 56.7152 17.3087C56.6987 17.3005 56.6821 17.295 56.6684 17.2867C56.4893 17.2013 56.3157 17.1049 56.1476 16.9974C56.0925 16.9616 56.0374 16.9258 55.9823 16.8872C55.9686 16.8762 55.9548 16.8679 55.941 16.8569C55.919 16.799 55.6104 16.5649 55.5773 16.5345C55.4837 16.4409 55.3376 16.3141 55.2633 16.1957C55.2522 16.1764 55.2412 16.1571 55.2329 16.1433C55.1613 16.0414 55.0924 15.9367 55.0291 15.832C54.9382 15.6805 54.8527 15.5262 54.7756 15.3664C54.7701 15.3526 54.7563 15.3306 54.7425 15.3058C54.7095 15.2507 54.6874 15.1625 54.6682 15.1074C54.5332 14.7382 54.445 14.358 54.3706 13.9723C54.3678 13.9558 54.3651 13.9448 54.3623 13.9337C54.3623 13.9255 54.3623 13.9227 54.3623 13.9117C54.3568 13.8401 54.3486 13.7684 54.3431 13.6968C54.3293 13.5177 54.3238 13.3386 54.321 13.1568C54.321 13.008 54.3265 12.8592 54.3348 12.7105C55.3211 13.4433 56.481 13.9117 57.7621 13.9943C59.688 14.1183 61.6882 13.0796 62.2227 11.1318C62.7489 9.21424 61.713 6.97158 59.8918 6.15607L59.8973 6.15883ZM59.0405 3.69025C59.0074 3.67648 58.9882 3.66821 58.9661 3.65995C59.0074 3.67372 59.0405 3.6875 59.0405 3.69025ZM55.0153 4.62423C54.9933 4.65178 54.9712 4.68209 54.9492 4.70964C54.985 4.65729 55.0098 4.62148 55.0153 4.62423ZM59.4675 9.41812C59.4675 9.41812 59.4593 9.40158 59.4538 9.38781C59.4538 9.38781 59.4593 9.40158 59.4675 9.41812ZM59.3022 9.11505C59.2802 9.0875 59.2031 9.00485 59.2086 9.00485C59.2306 9.00485 59.2664 9.05169 59.3022 9.11505ZM59.0708 8.85883C59.035 8.83128 59.0047 8.80648 58.9826 8.78995C59.0295 8.82026 59.0708 8.84781 59.0708 8.85883ZM58.9523 11.096C58.9826 11.0877 58.9964 11.085 58.9523 11.096V11.096ZM59.586 9.8975C59.586 10.016 59.5943 10.2116 59.5998 10.275C59.586 10.3328 59.575 10.3907 59.5585 10.4458C59.5557 10.4568 59.5364 10.5036 59.5199 10.5477C59.5034 10.5808 59.4868 10.6111 59.4675 10.6441C59.462 10.6552 59.4345 10.6965 59.4097 10.7351C59.3849 10.7626 59.3601 10.7902 59.3325 10.8177C59.3243 10.826 59.2885 10.8563 59.2554 10.8866C59.3022 10.859 59.3298 10.8563 59.192 10.9472C59.1838 10.9555 59.1755 10.9637 59.1783 10.9665C59.1783 10.9637 59.1783 10.9582 59.181 10.9555C59.1121 10.9995 58.8972 11.0712 58.8284 11.1345C58.7677 11.1538 58.7071 11.1731 58.6465 11.1896C58.5887 11.2034 58.5336 11.2172 58.4757 11.2282C58.4509 11.2337 58.4234 11.2365 58.3986 11.242C58.2498 11.2475 58.101 11.2585 57.9495 11.2558C57.8889 11.2558 57.8283 11.2503 57.7676 11.2475C57.7456 11.2475 57.7208 11.2447 57.6988 11.242C57.4921 11.1924 56.8888 11.0354 56.7951 11.0078C56.74 10.9775 56.6766 10.9527 56.6215 10.9252C56.47 10.8453 56.3212 10.7599 56.1752 10.6662C56.087 10.6111 56.0044 10.5505 55.919 10.4926C55.9052 10.4816 55.8832 10.4706 55.8639 10.4595C55.7289 10.3576 55.6049 10.2254 55.4892 10.1096C55.4175 10.0408 55.3542 9.96362 55.2853 9.89199C55.3101 9.85618 55.3294 9.81761 55.3542 9.77903C55.379 9.74322 55.4065 9.70189 55.4341 9.66607C55.4726 9.62475 55.5222 9.56965 55.536 9.55311C55.6545 9.42087 55.7812 9.29138 55.9107 9.17291C55.9603 9.12883 56.0126 9.08475 56.0622 9.04067C56.1146 9.00209 56.1697 8.96628 56.222 8.93046C56.3708 8.83403 56.5251 8.75414 56.6821 8.67148C56.7124 8.65495 56.7345 8.64393 56.7483 8.63566C56.8144 8.61362 56.8888 8.59709 56.9439 8.57781C57.1119 8.52546 57.2772 8.4924 57.4481 8.45658C57.4508 8.45658 57.4536 8.45658 57.4591 8.45658C57.5803 8.45658 57.7043 8.44281 57.8255 8.44281C57.9137 8.44281 57.9991 8.45658 58.0872 8.45383C58.0872 8.45383 58.09 8.45383 58.0927 8.45383C58.2581 8.4924 58.4179 8.53648 58.5832 8.58056C58.5969 8.58332 58.6052 8.58607 58.6162 8.58883C58.6245 8.59434 58.63 8.59709 58.6383 8.6026C58.6989 8.63842 58.7622 8.66597 58.8229 8.70179C58.8339 8.7073 58.889 8.7376 58.9468 8.77067C58.9523 8.77618 58.9523 8.77618 58.9606 8.78169C58.9937 8.81199 59.0295 8.8423 59.0598 8.8726C59.1259 8.93597 59.1838 9.00485 59.2471 9.06822C59.2802 9.10128 59.294 9.11505 59.2995 9.11781C59.3573 9.21699 59.4207 9.35199 59.44 9.38505C59.4538 9.4126 59.4675 9.4374 59.4786 9.46495C59.4923 9.50352 59.5061 9.54485 59.5089 9.55587C59.5364 9.64128 59.5612 9.72944 59.5805 9.81761C59.5805 9.81761 59.5805 9.81761 59.5805 9.82312C59.5805 9.81761 59.5833 9.80934 59.5888 9.80659C59.5888 9.80659 59.5833 9.81761 59.5833 9.83414C59.6273 10.0353 59.5943 9.97189 59.5833 9.89475L59.586 9.8975Z" fill="#EC662E"/>
</g>
<defs>
<clipPath id="clip0_604_17">
<rect width="107" height="19.7513" fill="white" transform="translate(0.701172 0.579712)"/>
</clipPath>
</defs>
</svg>
