<svg width="1510" height="84" viewBox="0 0 1510 84" fill="none" xmlns="http://www.w3.org/2000/svg">
<g clip-path="url(#clip0_1120_503)">
<path d="M844.205 69.5428C844.205 75.4218 840.796 80.1886 836.673 80.1886C832.55 80.1886 829.14 75.4218 829.14 69.5428C829.14 63.6637 836.673 49.3633 836.673 49.3633C836.673 49.3633 844.205 63.6637 844.205 69.5428Z" fill="#4ABBBF"/>
<path d="M829.14 16.8696C829.14 10.9906 832.55 6.22375 836.673 6.22375C840.796 6.22375 844.205 10.9906 844.205 16.8696C844.205 22.7487 836.673 37.0491 836.673 37.0491C836.673 37.0491 829.14 22.7487 829.14 16.8696Z" fill="#4ABBBF"/>
<path d="M810.348 50.7139C804.481 50.7139 799.724 47.2977 799.724 43.1665C799.724 39.0352 804.481 35.619 810.348 35.619C816.216 35.619 830.488 43.1665 830.488 43.1665C830.488 43.1665 816.216 50.7139 810.348 50.7139Z" fill="#4ABBBF"/>
<path d="M862.918 35.619C868.785 35.619 873.543 39.0352 873.543 43.1665C873.543 47.2977 868.785 50.7139 862.918 50.7139C857.05 50.7139 842.778 43.1665 842.778 43.1665C842.778 43.1665 857.05 35.619 862.918 35.619Z" fill="#4ABBBF"/>
<path d="M812.727 29.8989C808.604 25.7676 807.573 19.968 810.507 17.0285C813.441 14.089 819.229 15.0423 823.352 19.253C827.475 23.3842 832.232 38.8764 832.232 38.8764C832.232 38.8764 816.85 34.1095 812.648 29.9783" fill="#4ABBBF"/>
<path d="M860.539 56.5135C864.662 60.6447 865.693 66.4444 862.759 69.3839C859.825 72.3234 854.037 71.3701 849.914 67.1594C845.791 63.0281 841.034 47.536 841.034 47.536C841.034 47.536 856.416 52.3028 860.618 56.4341" fill="#4ABBBF"/>
<path d="M849.914 19.253C854.037 15.1218 859.825 14.089 862.759 17.0285C865.693 19.968 864.741 25.7676 860.539 29.8989C856.416 34.0301 840.954 38.7969 840.954 38.7969C840.954 38.7969 845.712 23.3842 849.835 19.1736" fill="#4ABBBF"/>
<path d="M823.352 67.1594C819.229 71.2906 813.441 72.3234 810.507 69.3839C807.573 66.4444 808.525 60.6448 812.727 56.5135C816.85 52.3823 832.312 47.6155 832.312 47.6155C832.312 47.6155 827.554 63.0282 823.431 67.2388" fill="#4ABBBF"/>
<path d="M836.673 48.2511C836.673 48.2511 836.514 48.0922 836.514 48.0127C836.356 47.6155 836.197 47.1388 836.038 46.7416C835.563 45.391 834.611 44.4376 833.263 43.8815C832.788 43.7226 832.391 43.5637 831.915 43.4048C831.836 43.4048 831.757 43.2459 831.677 43.2459C831.677 43.2459 831.836 43.087 831.915 43.087C832.55 42.8487 833.184 42.6103 833.818 42.372C834.928 41.8159 835.642 40.942 836.038 39.8297C836.197 39.4325 836.356 38.9558 836.514 38.5586C836.514 38.4791 836.673 38.3997 836.673 38.3202C836.673 38.3202 836.831 38.4791 836.831 38.5586C837.069 39.1941 837.307 39.8297 837.545 40.4653C838.1 41.5775 838.972 42.2926 840.082 42.6898C840.479 42.8487 840.954 43.0076 841.351 43.1665C841.43 43.1665 841.509 43.2459 841.589 43.3254C841.589 43.3254 841.43 43.4843 841.351 43.4843C840.717 43.7226 840.082 43.9609 839.448 44.1993C838.417 44.7554 837.624 45.5499 837.228 46.6621C837.069 47.1388 836.911 47.6155 836.752 48.0127C836.752 48.0922 836.673 48.1716 836.593 48.2511" fill="#4ABBBF"/>
<path d="M1326.53 53.6535C1325.49 53.6535 1324.46 53.2562 1323.67 52.4618L1304.32 33.9507C1302.66 32.3617 1302.58 29.6605 1304.17 27.9922C1305.75 26.3238 1308.45 26.2443 1310.11 27.8333L1326.6 43.5637L1366.8 5.34986C1368.47 3.76092 1371.17 3.84037 1372.75 5.50875C1374.34 7.17713 1374.26 9.87832 1372.59 11.4673L1329.54 52.4618C1328.75 53.2562 1327.71 53.6535 1326.68 53.6535" fill="#E41718"/>
<path d="M1360.62 14.4862C1351.74 5.5882 1337.39 5.5882 1328.51 14.4862L1326.45 16.5518L1324.38 14.4862C1315.5 5.5882 1301.15 5.5882 1292.27 14.4862C1283.63 23.1459 1283.55 36.9697 1292.11 46.5033C1299.96 55.2424 1323.12 74.0713 1324.07 74.8657C1324.7 75.4219 1325.57 75.6602 1326.37 75.6602C1327.16 75.6602 1328.03 75.4219 1328.75 74.8657C1329.7 74.0713 1352.85 55.2424 1360.7 46.5033C1369.26 36.9697 1369.26 23.1459 1360.54 14.4862M1355.31 41.7365C1349.2 48.5689 1332.39 62.5515 1326.37 67.5566C1320.34 62.5515 1303.53 48.5689 1297.43 41.7365C1291.4 35.0629 1291.4 25.5293 1297.27 19.6503C1300.28 16.6313 1304.25 15.1218 1308.21 15.1218C1312.17 15.1218 1316.14 16.6313 1319.15 19.6503L1323.67 24.1787C1324.23 24.7349 1324.86 25.0526 1325.57 25.1321C1326.76 25.3704 1327.95 25.1321 1328.9 24.1787L1333.42 19.6503C1339.45 13.6123 1349.28 13.6123 1355.39 19.6503C1361.33 25.6088 1361.25 35.0629 1355.23 41.7365" fill="#E41718"/>
<path d="M548.454 35.0628V28.7866H582.548L585.244 35.0628H548.454Z" fill="#DC368C"/>
<path d="M516.976 34.03C516.976 34.904 516.262 35.619 515.39 35.619C514.518 35.619 513.804 34.904 513.804 34.03V29.6605C513.804 28.7866 514.518 28.0715 515.39 28.0715C516.262 28.0715 516.976 28.7866 516.976 29.6605V34.03Z" fill="#DC368C"/>
<path d="M508.095 37.4462C508.095 38.5585 507.223 39.4324 506.113 39.4324C505.003 39.4324 504.131 38.5585 504.131 37.4462V26.2443C504.131 25.132 505.003 24.2581 506.113 24.2581C507.223 24.2581 508.095 25.132 508.095 26.2443V37.4462Z" fill="#DC368C"/>
<path d="M516.103 31.8055C516.103 34.6656 513.804 36.9696 510.95 36.9696H507.54C504.686 36.9696 507.064 34.6656 507.064 31.8055C507.064 28.9454 504.686 26.6415 507.54 26.6415H510.95C513.804 26.6415 516.103 28.9454 516.103 31.8055Z" fill="#DC368C"/>
<path d="M507.778 25.6087L509.76 26.8798H507.778V25.6087Z" fill="#DC368C"/>
<path d="M507.778 38.0818L509.76 36.8107H507.778V38.0818Z" fill="#DC368C"/>
<path d="M567.166 22.5103C567.166 22.9869 566.849 23.3842 566.532 23.3842H561.854C561.854 23.3842 561.219 22.9869 561.219 22.5103V22.3514C561.219 21.8747 561.536 21.4775 561.854 21.4775H566.532C566.532 21.4775 567.166 21.8747 567.166 22.3514V22.5103Z" fill="#DC368C"/>
<path d="M565.263 23.0664H563.281V28.9455H565.263V23.0664Z" fill="#DC368C"/>
<path d="M567.404 28.4688H561.14V31.6466H567.404V28.4688Z" fill="#DC368C"/>
<path d="M567.88 29.1043C567.88 29.581 567.483 29.8988 567.087 29.8988H561.378C560.902 29.8988 560.585 29.5016 560.585 29.1043C560.585 28.6277 560.981 27.8332 561.378 27.8332H567.087C567.562 27.8332 567.88 28.6277 567.88 29.1043Z" fill="#DC368C"/>
<path d="M567.087 21.9541C567.087 21.4775 566.849 21.1597 566.452 21.1597H562.012C562.012 21.1597 561.378 21.5569 561.378 21.9541C561.378 22.4308 561.616 22.7486 562.012 22.7486H566.452C566.452 22.7486 567.087 22.3514 567.087 21.9541Z" fill="#DC368C"/>
<path d="M555.193 22.5103C555.193 22.9869 554.876 23.3842 554.559 23.3842H549.881C549.881 23.3842 549.247 22.9869 549.247 22.5103V22.3514C549.247 21.8747 549.564 21.4775 549.881 21.4775H554.559C554.559 21.4775 555.193 21.8747 555.193 22.3514V22.5103Z" fill="#DC368C"/>
<path d="M553.211 23.0664H551.229V28.9455H553.211V23.0664Z" fill="#DC368C"/>
<path d="M555.352 28.4688H549.088V31.6466H555.352V28.4688Z" fill="#DC368C"/>
<path d="M555.907 29.1043C555.907 29.581 555.511 29.8988 555.114 29.8988H549.405C548.93 29.8988 548.612 29.5016 548.612 29.1043C548.612 28.6277 549.009 27.8332 549.405 27.8332H555.114C555.59 27.8332 555.907 28.6277 555.907 29.1043Z" fill="#DC368C"/>
<path d="M555.035 21.9541C555.035 21.4775 554.797 21.1597 554.4 21.1597H549.96C549.96 21.1597 549.326 21.5569 549.326 21.9541C549.326 22.4308 549.564 22.7486 549.96 22.7486H554.4C554.4 22.7486 555.035 22.3514 555.035 21.9541Z" fill="#DC368C"/>
<path d="M579.218 22.5103C579.218 22.9869 578.901 23.3842 578.584 23.3842H573.906C573.906 23.3842 573.271 22.9869 573.271 22.5103V22.3514C573.271 21.8747 573.589 21.4775 573.906 21.4775H578.584C578.584 21.4775 579.218 21.8747 579.218 22.3514V22.5103Z" fill="#DC368C"/>
<path d="M577.236 23.0664H575.254V28.9455H577.236V23.0664Z" fill="#DC368C"/>
<path d="M579.377 28.4688H573.113V31.6466H579.377V28.4688Z" fill="#DC368C"/>
<path d="M579.932 29.1043C579.932 29.581 579.535 29.8988 579.139 29.8988H573.43C572.954 29.8988 572.637 29.5016 572.637 29.1043C572.637 28.6277 573.034 27.8332 573.43 27.8332H579.139C579.615 27.8332 579.932 28.6277 579.932 29.1043Z" fill="#DC368C"/>
<path d="M579.06 21.9541C579.06 21.4775 578.822 21.1597 578.425 21.1597H573.985C573.985 21.1597 573.351 21.5569 573.351 21.9541C573.351 22.4308 573.589 22.7486 573.985 22.7486H578.425C578.425 22.7486 579.06 22.3514 579.06 21.9541Z" fill="#DC368C"/>
<path d="M555.51 38.0024C552.656 38.1613 550.436 38.3202 549.009 38.479C548.929 44.1198 549.009 47.8538 549.009 53.4945C549.009 55.9573 549.564 58.0229 552.18 58.1024C555.114 58.1818 555.669 55.9573 555.59 53.415C555.59 47.6949 555.59 43.802 555.59 38.0818L555.51 38.0024Z" fill="#DC368C"/>
<path d="M579.535 38.3202C577.394 38.0818 575.174 37.9229 573.033 37.8435C573.033 43.7225 573.033 47.7743 573.033 53.7328C573.033 56.1162 573.906 57.864 576.364 57.7846C578.742 57.7846 579.694 56.1162 579.694 53.6534C579.615 47.9332 579.694 44.0403 579.694 38.3202H579.535Z" fill="#DC368C"/>
<path d="M567.642 34.5067C567.642 33.8711 567.642 33.2356 567.642 32.6794C567.642 30.4549 566.769 28.7071 564.153 28.7071C561.536 28.7071 560.823 30.4549 560.823 32.7589C560.823 33.315 560.823 33.9506 560.823 34.5067C562.964 34.5067 565.263 34.5067 567.642 34.5067Z" fill="#DC368C"/>
<path d="M560.823 37.764C560.823 39.9091 560.823 42.0542 560.823 44.1198C560.823 47.9332 560.823 49.8399 560.823 53.6534C560.823 56.0368 561.774 57.7052 564.153 57.7846C566.611 57.864 567.721 56.1957 567.721 53.8123C567.721 47.3771 567.721 43.1664 567.721 37.6051C565.342 37.6051 563.043 37.6051 560.902 37.6051L560.823 37.764Z" fill="#DC368C"/>
<path d="M531.644 31.4083C532.754 30.5344 534.023 29.6605 535.609 28.7866C529.741 28.7866 523.795 28.7866 517.927 28.7866V35.3012C521.099 35.3012 524.27 35.3012 527.521 35.3012C528.473 34.1889 529.821 32.7589 531.644 31.3288V31.4083Z" fill="#DC368C"/>
<path d="M595.076 33.7917C591.587 31.0905 587.623 29.4221 583.183 28.7071C581.28 28.7071 579.297 28.7071 577.395 28.7071C574.381 28.6277 572.954 29.7399 573.034 32.8383C573.034 33.4739 573.034 34.1095 573.034 34.6656C575.888 34.8245 578.742 34.9834 581.518 35.3806C581.755 35.3806 581.914 35.3806 582.152 35.3806C582.548 35.3806 582.865 35.4601 583.262 35.5395C583.341 35.5395 583.421 35.5395 583.5 35.5395C592.301 37.2874 597.851 44.3581 597.376 53.7328C596.979 62.3131 589.367 69.2249 580.249 69.2249C569.703 69.2249 559.158 69.2249 548.612 69.2249C539.415 69.2249 531.961 62.472 531.248 53.8123C530.534 44.517 536.877 36.8901 546.154 35.3806C546.551 35.3806 546.947 35.3012 547.185 35.3012C547.978 35.2217 551.15 34.904 555.51 34.6656C555.51 34.3478 555.51 34.03 555.51 33.7123C555.51 29.2632 554.876 28.7071 550.277 28.7071C548.612 28.7071 546.947 28.7071 545.282 28.7071C537.908 29.9783 533.151 33.8712 530.693 36.5723C530.376 37.049 530.058 37.2874 529.741 37.6846C524.112 45.4704 523.002 53.8123 527.125 62.3925C531.168 70.8139 538.146 75.5807 547.661 75.7396C559.158 75.8985 570.655 76.0574 582.073 75.6601C591.825 75.3423 598.723 70.0194 602.292 60.9625C605.78 52.2233 604.194 44.1198 598.486 36.9696C597.613 36.0162 596.503 34.904 595.076 33.7123V33.7917Z" fill="#DC368C"/>
<path d="M636.386 58.738C636.386 40.783 636.386 22.9075 636.386 4.95254C636.386 2.96638 636.465 1.05966 634.166 0.265189C631.867 -0.449831 630.519 0.741869 629.171 2.56914C624.334 9.48101 618.784 15.7573 612.203 21.1597C606.652 25.7676 600.547 28.7866 593.252 28.7866C594.759 29.581 596.028 30.4549 597.058 31.3289C599.516 33.2356 601.181 35.2217 602.054 36.4134C603.957 36.9696 606.018 38.0818 608.793 39.9885C616.96 45.6293 623.541 52.9384 629.329 60.9625C630.598 62.7103 631.867 64.2992 634.245 63.5048C636.465 62.7103 636.386 60.7241 636.386 58.738Z" fill="#DC368C"/>
<path d="M-12.4432 44.6759L-26.7947 24.417V17.5846H-19.9757V20.9214L-8.95445 36.6518L2.22543 21.0803V17.664H8.80649V24.5759L-5.78285 44.8348V71.6878H-12.4432V44.6759Z" fill="#EDEDED"/>
<path d="M108.553 17.5051V20.9213L130.675 47.0593V17.5051H137.415V71.6083H130.675V58.4202L108.553 32.2822V71.6083H101.734V17.5051H108.553Z" fill="#EDEDED"/>
<path d="M152.321 17.5051H170.162C179.914 17.5051 188.002 25.7676 188.002 35.9368V53.2561C188.002 63.4253 179.993 71.6878 170.162 71.6878H152.321V17.5051ZM181.183 35.9368C181.183 29.581 176.267 24.3375 170.162 24.3375H159.14V64.7759H170.162C176.267 64.7759 181.183 59.5324 181.183 53.1767V35.8573V35.9368Z" fill="#EDEDED"/>
<path d="M205.763 17.5051H223.603C233.356 17.5051 241.443 25.7676 241.443 35.9368V53.2561C241.443 63.4253 233.435 71.6878 223.603 71.6878H205.763V17.5051ZM234.624 35.9368C234.624 29.581 229.708 24.3375 223.603 24.3375H212.582V64.7759H223.603C229.708 64.7759 234.624 59.5324 234.624 53.1767V35.8573V35.9368Z" fill="#E94E1B"/>
<path d="M255.795 37.8435L284.656 20.7624V17.4257H291.396V25.3703L265.072 41.0213H291.475V47.9332H262.614V64.617H291.475V71.5289H255.795V37.8435Z" fill="#E94E1B"/>
<path d="M339.525 54.0506C339.525 63.8226 331.12 71.6083 321.526 71.6083H304.003V64.7759H321.526C326.759 64.7759 331.279 60.883 332.389 55.8779L304.003 38.9557V35.2217C304.003 25.4498 312.17 17.5051 321.526 17.5051H339.604V24.3375H321.526C316.134 24.3375 311.615 28.7071 310.822 34.3478L339.525 51.3494V54.0506Z" fill="#E94E1B"/>
<path d="M352.528 64.6965H366.88V24.417H352.528V17.5051H388.209V24.417H373.778V64.7759H388.209V71.6878H352.528V64.7759V64.6965Z" fill="#E94E1B"/>
<path d="M436.655 24.3375H418.815C412.71 24.3375 407.794 29.581 407.794 35.9367V53.2561C407.794 59.6119 412.71 64.8553 418.815 64.8553C424.92 64.8553 429.757 59.6119 429.757 53.2561V48.0126H418.26V41.1008H436.655V53.1767C436.655 63.3459 428.726 71.6083 418.815 71.6083C408.904 71.6083 400.975 63.3459 400.975 53.1767V35.8573C400.975 25.6881 408.904 17.4257 418.815 17.4257H436.655V24.2581V24.3375Z" fill="#E94E1B"/>
<path d="M456.557 20.9213L478.679 47.0593V17.5051H485.418V71.6083H478.679V58.4202L456.557 32.2822V71.6083H449.738V17.5051H456.557V20.9213Z" fill="#E94E1B"/>
<path d="M658.825 17.5051H678.41C686.815 17.5051 693.554 24.3375 693.554 32.7589C693.554 37.3668 691.572 41.498 688.242 44.3581C692.048 47.0593 694.426 51.5083 694.426 56.5135C694.426 64.9348 687.687 71.6878 679.282 71.6878H658.825V17.5051ZM678.41 41.1802C683.088 41.1802 686.815 37.3668 686.815 32.7589C686.815 28.151 683.088 24.3375 678.41 24.3375H665.644V41.1008H678.41V41.1802ZM679.282 64.8554C683.881 64.8554 687.687 61.0419 687.687 56.434C687.687 51.8261 683.881 48.0127 679.282 48.0127H665.723V64.7759H679.282V64.8554Z" fill="#EDEDED"/>
<path d="M744.379 71.6083H708.699V17.5051H744.379V24.417H715.518V41.1802H741.921V48.0921H715.597V64.7759H744.459V71.6083H744.379Z" fill="#EDEDED"/>
<path d="M770.307 44.6759L755.956 24.417V17.5846H762.775V20.9214L773.796 36.6518L784.976 21.0803V17.664H791.557V24.5759L776.967 44.8348V71.6878H770.307V44.6759Z" fill="#EDEDED"/>
<path d="M891.224 17.5051V20.9213L913.346 47.0593V17.5051H920.086V71.6083H913.346V58.4202L891.224 32.2822V71.6083H884.405V17.5051H891.224Z" fill="#EDEDED"/>
<path d="M935.071 17.5051H952.912C962.664 17.5051 970.752 25.7676 970.752 35.9368V53.2561C970.752 63.4253 962.743 71.6878 952.912 71.6878H935.071V17.5051ZM963.933 35.9368C963.933 29.581 959.017 24.3375 952.912 24.3375H941.89V64.7759H952.912C959.017 64.7759 963.933 59.5324 963.933 53.1767V35.8573V35.9368Z" fill="#EDEDED"/>
<path d="M987.879 17.5051H1005.72C1015.47 17.5051 1023.56 25.7676 1023.56 35.9368V53.2561C1023.56 63.4253 1015.55 71.6878 1005.72 71.6878H987.879V17.5051ZM1016.74 35.9368C1016.74 29.581 1011.82 24.3375 1005.72 24.3375H994.697V64.7759H1005.72C1011.82 64.7759 1016.74 59.5324 1016.74 53.1767V35.8573V35.9368Z" fill="#4ABBBF"/>
<path d="M1037.91 37.8435L1066.77 20.7624V17.4257H1073.51V25.3703L1047.19 41.0213H1073.59V47.9332H1044.73V64.617H1073.59V71.5289H1037.91V37.8435Z" fill="#4ABBBF"/>
<path d="M1121.64 54.0506C1121.64 63.8226 1113.24 71.6083 1103.64 71.6083H1086.12V64.7759H1103.64C1108.87 64.7759 1113.39 60.883 1114.5 55.8779L1086.12 38.9557V35.2217C1086.12 25.4498 1094.29 17.5051 1103.64 17.5051H1121.72V24.3375H1103.64C1098.25 24.3375 1093.73 28.7071 1092.94 34.3478L1121.64 51.3494V54.0506Z" fill="#4ABBBF"/>
<path d="M1134.64 64.6965H1149V24.417H1134.64V17.5051H1170.32V24.417H1155.89V64.7759H1170.32V71.6878H1134.64V64.7759V64.6965Z" fill="#4ABBBF"/>
<path d="M1218.77 24.3375H1200.93C1194.83 24.3375 1189.91 29.581 1189.91 35.9367V53.2561C1189.91 59.6119 1194.83 64.8553 1200.93 64.8553C1207.04 64.8553 1211.87 59.6119 1211.87 53.2561V48.0126H1200.38V41.1008H1218.77V53.1767C1218.77 63.3459 1210.84 71.6083 1200.93 71.6083C1191.02 71.6083 1183.09 63.3459 1183.09 53.1767V35.8573C1183.09 25.6881 1191.02 17.4257 1200.93 17.4257H1218.77V24.2581V24.3375Z" fill="#4ABBBF"/>
<path d="M1238.67 20.9213L1260.79 47.0593V17.5051H1267.53V71.6083H1260.79V58.4202L1238.67 32.2822V71.6083H1231.85V17.5051H1238.67V20.9213Z" fill="#4ABBBF"/>
<path d="M1387.66 17.5051H1407.24C1415.65 17.5051 1422.39 24.3375 1422.39 32.7589C1422.39 37.3668 1420.4 41.498 1417.07 44.3581C1420.88 47.0593 1423.26 51.5083 1423.26 56.5135C1423.26 64.9348 1416.52 71.6878 1408.11 71.6878H1387.66V17.5051ZM1407.24 41.1802C1411.92 41.1802 1415.65 37.3668 1415.65 32.7589C1415.65 28.151 1411.92 24.3375 1407.24 24.3375H1394.48V41.1008H1407.24V41.1802ZM1408.11 64.8554C1412.71 64.8554 1416.52 61.0419 1416.52 56.434C1416.52 51.8261 1412.71 48.0127 1408.11 48.0127H1394.56V64.7759H1408.11V64.8554Z" fill="#EDEDED"/>
<path d="M1473.21 71.6083H1437.53V17.5051H1473.21V24.417H1444.35V41.1802H1470.75V48.0921H1444.43V64.7759H1473.29V71.6083H1473.21Z" fill="#EDEDED"/>
<path d="M1499.14 44.6759L1484.79 24.417V17.5846H1491.61V20.9214L1502.63 36.6518L1513.81 21.0803V17.664H1520.39V24.5759L1505.8 44.8348V71.6878H1499.14V44.6759Z" fill="#EDEDED"/>
<path d="M53.526 5.27039C32.3556 5.27039 15.1497 22.5103 15.1497 43.7226C15.1497 64.9349 32.3556 82.1748 53.526 82.1748C74.6964 82.1748 91.9023 64.9349 91.9023 43.7226C91.9023 22.5103 74.6171 5.27039 53.526 5.27039ZM85.3212 43.7226C85.3212 61.2803 71.0491 75.5807 53.526 75.5807C36.0029 75.5807 21.7307 61.2803 21.7307 43.7226C21.7307 26.1649 36.0029 11.8645 53.526 11.8645C71.0491 11.8645 85.3212 26.1649 85.3212 43.7226Z" fill="#E94E1B"/>
<path d="M57.8869 61.042L52.6538 52.6206L45.8348 59.7708L47.2621 49.9989L37.4301 50.9522L44.8041 44.4376L36.6372 38.8763L46.5484 38.5586L43.8526 29.1044L51.5437 35.2218L55.5875 26.1649L57.5697 35.8574L66.4502 31.5672L61.7721 40.2269L71.2869 42.6898L62.1686 46.3443L67.9567 54.289L58.6005 51.1906L57.8869 61.042Z" fill="#E94E1B"/>
</g>
<defs>
<clipPath id="clip0_1120_503">
<rect width="2120.69" height="83.0218" fill="white" transform="translate(-123.695 0.0880127)"/>
</clipPath>
</defs>
</svg>
