<?xml version="1.0" encoding="utf-8"?>
<!-- Generator: Adobe Illustrator 26.5.0, SVG Export Plug-In . SVG Version: 6.00 Build 0)  -->
<svg version="1.1" id="Camada_1" xmlns="http://www.w3.org/2000/svg" xmlns:xlink="http://www.w3.org/1999/xlink" x="0px" y="0px"
	 viewBox="0 0 300 300" style="enable-background:new 0 0 300 300;" xml:space="preserve">
<style type="text/css">
	.st0{fill:#E8461C;}
</style>
<g>
	<path class="st0" d="M150,244.34c-52.02,0-94.34-42.32-94.34-94.34S97.98,55.66,150,55.66s94.34,42.32,94.34,94.34
		S202.02,244.34,150,244.34z M150,71.66c-43.2,0-78.34,35.14-78.34,78.34c0,43.2,35.14,78.34,78.34,78.34
		c43.2,0,78.34-35.14,78.34-78.34C228.34,106.8,193.2,71.66,150,71.66z"/>
</g>
<g>
	<path class="st0" d="M150,244.34c-25.87,0-39.4-47.46-39.4-94.34c0-46.88,13.53-94.34,39.4-94.34s39.4,47.46,39.4,94.34
		C189.4,196.88,175.87,244.34,150,244.34z M150,71.66c-3.69,0-9.65,6.19-14.69,20.02c-5.62,15.45-8.71,36.16-8.71,58.32
		s3.1,42.86,8.71,58.32c5.03,13.83,11,20.02,14.69,20.02c3.68,0,9.66-6.19,14.69-20.02c5.62-15.45,8.71-36.16,8.71-58.32
		s-3.09-42.86-8.71-58.32C159.66,77.85,153.68,71.66,150,71.66z"/>
</g>
<g>
	<rect x="62.77" y="142" class="st0" width="174.46" height="16"/>
</g>
</svg>
